<mxfile host="app.diagrams.net" modified="2023-11-14T18:33:23.059Z" agent="Mozilla/5.0 (Windows NT 10.0; Win64; x64) AppleWebKit/537.36 (KHTML, like Gecko) Chrome/118.0.0.0 Safari/537.36 OPR/104.0.0.0" etag="sKjF0u9TNZWpg9q4RuMr" version="22.1.1" type="device">
  <diagram name="Page-1" id="rstGzfmQgd3mkzjiglMX">
    <mxGraphModel dx="1236" dy="912" grid="1" gridSize="10" guides="1" tooltips="1" connect="1" arrows="0" fold="1" page="1" pageScale="1" pageWidth="850" pageHeight="1100" math="0" shadow="0">
      <root>
        <mxCell id="0" />
        <mxCell id="1" parent="0" />
        <mxCell id="Yvhn0Xpq12AAz8X3d8LL-53" value="" style="rounded=0;whiteSpace=wrap;html=1;dashed=1;" parent="1" vertex="1">
          <mxGeometry x="170" y="320" width="430" height="390" as="geometry" />
        </mxCell>
        <mxCell id="lSQpZ-wXDewV6-AMejSS-19" value="Process" style="swimlane;" parent="1" vertex="1">
          <mxGeometry x="307.5" y="605" width="110" height="80" as="geometry" />
        </mxCell>
        <mxCell id="lSQpZ-wXDewV6-AMejSS-20" value="&lt;font style=&quot;font-size: 14px;&quot;&gt;&lt;u&gt;Process_id&lt;/u&gt;&lt;br&gt;process_data&lt;br&gt;&lt;/font&gt;" style="text;html=1;strokeColor=none;fillColor=none;align=left;verticalAlign=middle;whiteSpace=wrap;rounded=0;" parent="lSQpZ-wXDewV6-AMejSS-19" vertex="1">
          <mxGeometry y="20" width="105" height="60.5" as="geometry" />
        </mxCell>
        <mxCell id="lSQpZ-wXDewV6-AMejSS-21" value="Assembly" style="swimlane;" parent="1" vertex="1">
          <mxGeometry x="300" y="330" width="130" height="100" as="geometry" />
        </mxCell>
        <mxCell id="lSQpZ-wXDewV6-AMejSS-22" value="&lt;font style=&quot;font-size: 14px;&quot;&gt;&lt;u&gt;assembly_id&lt;/u&gt;&lt;br&gt;date_ordered&lt;br&gt;assembly_details&lt;br&gt;&lt;/font&gt;" style="text;html=1;strokeColor=none;fillColor=none;align=left;verticalAlign=middle;whiteSpace=wrap;rounded=0;" parent="lSQpZ-wXDewV6-AMejSS-21" vertex="1">
          <mxGeometry x="5" y="30" width="115" height="70" as="geometry" />
        </mxCell>
        <mxCell id="Yvhn0Xpq12AAz8X3d8LL-62" style="edgeStyle=orthogonalEdgeStyle;rounded=0;orthogonalLoop=1;jettySize=auto;html=1;exitX=1;exitY=0.5;exitDx=0;exitDy=0;endArrow=classic;endFill=1;shape=link;entryX=0;entryY=0.5;entryDx=0;entryDy=0;" parent="1" source="Esn9ofpHZriy3nmGsQpr-6" target="WISRtMbhI-oxBsKCAMT3-7" edge="1">
          <mxGeometry relative="1" as="geometry">
            <mxPoint x="1390" y="956" as="targetPoint" />
          </mxGeometry>
        </mxCell>
        <mxCell id="44iWDTCKB7y5lLKzqdXo-9" value="Department" style="swimlane;" parent="1" vertex="1">
          <mxGeometry x="740" y="907.5" width="150" height="90" as="geometry" />
        </mxCell>
        <mxCell id="44iWDTCKB7y5lLKzqdXo-10" value="&lt;font style=&quot;font-size: 15px;&quot;&gt;&lt;u&gt;department_no&lt;/u&gt;&lt;br&gt;department_data&lt;br&gt;&lt;/font&gt;" style="text;html=1;strokeColor=none;fillColor=none;align=left;verticalAlign=middle;whiteSpace=wrap;rounded=0;" parent="44iWDTCKB7y5lLKzqdXo-9" vertex="1">
          <mxGeometry x="5" y="30" width="135" height="50" as="geometry" />
        </mxCell>
        <mxCell id="Yvhn0Xpq12AAz8X3d8LL-121" style="edgeStyle=orthogonalEdgeStyle;rounded=0;orthogonalLoop=1;jettySize=auto;html=1;exitX=0.5;exitY=1;exitDx=0;exitDy=0;endArrow=none;endFill=0;" parent="1" source="44iWDTCKB7y5lLKzqdXo-11" edge="1">
          <mxGeometry relative="1" as="geometry">
            <mxPoint x="925" y="230" as="targetPoint" />
          </mxGeometry>
        </mxCell>
        <mxCell id="44iWDTCKB7y5lLKzqdXo-11" value="Cut_Job" style="swimlane;" parent="1" vertex="1">
          <mxGeometry x="1040" y="27.5" width="160" height="110" as="geometry" />
        </mxCell>
        <mxCell id="44iWDTCKB7y5lLKzqdXo-12" value="&lt;font style=&quot;font-size: 15px;&quot;&gt;machine_used&lt;br&gt;time_machine_used&lt;br&gt;material_used&lt;br&gt;labour_time&lt;br&gt;&lt;/font&gt;" style="text;html=1;strokeColor=none;fillColor=none;align=left;verticalAlign=middle;whiteSpace=wrap;rounded=0;" parent="44iWDTCKB7y5lLKzqdXo-11" vertex="1">
          <mxGeometry y="28" width="130" height="72" as="geometry" />
        </mxCell>
        <mxCell id="44iWDTCKB7y5lLKzqdXo-16" value="Customer" style="swimlane;" parent="1" vertex="1">
          <mxGeometry x="310" y="20" width="120" height="100" as="geometry" />
        </mxCell>
        <mxCell id="44iWDTCKB7y5lLKzqdXo-17" value="&lt;font style=&quot;font-size: 14px;&quot;&gt;&lt;u&gt;name&lt;/u&gt;&lt;br&gt;address&lt;br&gt;category&lt;/font&gt;" style="text;html=1;strokeColor=none;fillColor=none;align=left;verticalAlign=middle;whiteSpace=wrap;rounded=0;" parent="44iWDTCKB7y5lLKzqdXo-16" vertex="1">
          <mxGeometry x="5" y="28" width="95" height="72" as="geometry" />
        </mxCell>
        <mxCell id="44iWDTCKB7y5lLKzqdXo-19" value="Transaction" style="swimlane;" parent="1" vertex="1">
          <mxGeometry x="2250" y="590" width="160" height="110" as="geometry" />
        </mxCell>
        <mxCell id="44iWDTCKB7y5lLKzqdXo-20" value="&lt;font style=&quot;font-size: 19px;&quot;&gt;&lt;u&gt;transaction_num&lt;/u&gt;&lt;br&gt;sup_cost&lt;br&gt;&lt;br&gt;&lt;/font&gt;" style="text;html=1;strokeColor=none;fillColor=none;align=left;verticalAlign=middle;whiteSpace=wrap;rounded=0;" parent="44iWDTCKB7y5lLKzqdXo-19" vertex="1">
          <mxGeometry x="5" y="28" width="155" height="72" as="geometry" />
        </mxCell>
        <mxCell id="44iWDTCKB7y5lLKzqdXo-23" value="Account" style="swimlane;" parent="1" vertex="1">
          <mxGeometry x="1810" y="580" width="160" height="100" as="geometry" />
        </mxCell>
        <mxCell id="44iWDTCKB7y5lLKzqdXo-24" value="&lt;font style=&quot;font-size: 15px;&quot;&gt;&lt;u&gt;account_number&lt;/u&gt;&lt;br&gt;date_established&lt;br&gt;&lt;/font&gt;" style="text;html=1;strokeColor=none;fillColor=none;align=left;verticalAlign=middle;whiteSpace=wrap;rounded=0;" parent="44iWDTCKB7y5lLKzqdXo-23" vertex="1">
          <mxGeometry y="25" width="125" height="62" as="geometry" />
        </mxCell>
        <mxCell id="g80aGx1AffrBZxclH2tH-3" style="edgeStyle=orthogonalEdgeStyle;rounded=0;orthogonalLoop=1;jettySize=auto;html=1;exitX=0.5;exitY=0;exitDx=0;exitDy=0;entryX=0.5;entryY=1;entryDx=0;entryDy=0;" parent="1" source="rlw6mKpt9DurWP3DimKn-4" target="44iWDTCKB7y5lLKzqdXo-17" edge="1">
          <mxGeometry relative="1" as="geometry" />
        </mxCell>
        <mxCell id="rlw6mKpt9DurWP3DimKn-4" value="orders" style="rhombus;whiteSpace=wrap;html=1;" parent="1" vertex="1">
          <mxGeometry x="322.5" y="180" width="80" height="80" as="geometry" />
        </mxCell>
        <mxCell id="Yvhn0Xpq12AAz8X3d8LL-98" style="edgeStyle=orthogonalEdgeStyle;rounded=0;orthogonalLoop=1;jettySize=auto;html=1;exitX=0.5;exitY=1;exitDx=0;exitDy=0;entryX=0.5;entryY=0;entryDx=0;entryDy=0;endArrow=none;endFill=0;" parent="1" source="rlw6mKpt9DurWP3DimKn-9" target="lSQpZ-wXDewV6-AMejSS-19" edge="1">
          <mxGeometry relative="1" as="geometry" />
        </mxCell>
        <mxCell id="rlw6mKpt9DurWP3DimKn-9" value="&lt;font style=&quot;font-size: 11px;&quot;&gt;Manufacture&lt;/font&gt;" style="rhombus;whiteSpace=wrap;html=1;" parent="1" vertex="1">
          <mxGeometry x="322.5" y="480" width="80" height="80" as="geometry" />
        </mxCell>
        <mxCell id="rlw6mKpt9DurWP3DimKn-10" value="" style="endArrow=none;html=1;rounded=0;exitX=0.5;exitY=0;exitDx=0;exitDy=0;entryX=0.5;entryY=1;entryDx=0;entryDy=0;" parent="1" source="rlw6mKpt9DurWP3DimKn-9" target="lSQpZ-wXDewV6-AMejSS-22" edge="1">
          <mxGeometry width="50" height="50" relative="1" as="geometry">
            <mxPoint x="60" y="480" as="sourcePoint" />
            <mxPoint x="110" y="430" as="targetPoint" />
          </mxGeometry>
        </mxCell>
        <mxCell id="g80aGx1AffrBZxclH2tH-1" style="edgeStyle=orthogonalEdgeStyle;rounded=0;orthogonalLoop=1;jettySize=auto;html=1;exitX=0.5;exitY=1;exitDx=0;exitDy=0;entryX=0;entryY=0.5;entryDx=0;entryDy=0;endArrow=classic;endFill=1;" parent="1" source="rlw6mKpt9DurWP3DimKn-33" target="44iWDTCKB7y5lLKzqdXo-9" edge="1">
          <mxGeometry relative="1" as="geometry" />
        </mxCell>
        <mxCell id="rlw6mKpt9DurWP3DimKn-33" value="supervise" style="rhombus;whiteSpace=wrap;html=1;" parent="1" vertex="1">
          <mxGeometry x="680" y="740" width="80" height="80" as="geometry" />
        </mxCell>
        <mxCell id="rlw6mKpt9DurWP3DimKn-35" value="" style="endArrow=none;html=1;rounded=0;entryX=0.5;entryY=0;entryDx=0;entryDy=0;exitX=1;exitY=0.75;exitDx=0;exitDy=0;shape=link;" parent="1" source="lSQpZ-wXDewV6-AMejSS-19" target="rlw6mKpt9DurWP3DimKn-33" edge="1">
          <mxGeometry width="50" height="50" relative="1" as="geometry">
            <mxPoint x="420" y="680" as="sourcePoint" />
            <mxPoint x="630" y="560" as="targetPoint" />
            <Array as="points">
              <mxPoint x="720" y="665" />
            </Array>
          </mxGeometry>
        </mxCell>
        <mxCell id="rlw6mKpt9DurWP3DimKn-37" value="Deptartment_Acc" style="swimlane;" parent="1" vertex="1">
          <mxGeometry x="1440" y="902.5" width="160" height="100" as="geometry" />
        </mxCell>
        <mxCell id="rlw6mKpt9DurWP3DimKn-38" value="&lt;font style=&quot;font-size: 15px;&quot;&gt;details-3&lt;br&gt;&lt;/font&gt;" style="text;html=1;strokeColor=none;fillColor=none;align=left;verticalAlign=middle;whiteSpace=wrap;rounded=0;" parent="rlw6mKpt9DurWP3DimKn-37" vertex="1">
          <mxGeometry x="5" y="18" width="155" height="72" as="geometry" />
        </mxCell>
        <mxCell id="rlw6mKpt9DurWP3DimKn-41" value="Process_Acc" style="swimlane;" parent="1" vertex="1">
          <mxGeometry x="1440" y="580" width="160" height="100" as="geometry" />
        </mxCell>
        <mxCell id="rlw6mKpt9DurWP3DimKn-42" value="&lt;font style=&quot;font-size: 15px;&quot;&gt;details-1&lt;br&gt;&lt;/font&gt;" style="text;html=1;strokeColor=none;fillColor=none;align=left;verticalAlign=middle;whiteSpace=wrap;rounded=0;" parent="rlw6mKpt9DurWP3DimKn-41" vertex="1">
          <mxGeometry x="5" y="18" width="155" height="72" as="geometry" />
        </mxCell>
        <mxCell id="Yvhn0Xpq12AAz8X3d8LL-120" style="edgeStyle=orthogonalEdgeStyle;rounded=0;orthogonalLoop=1;jettySize=auto;html=1;exitX=0.5;exitY=1;exitDx=0;exitDy=0;entryX=0.5;entryY=0;entryDx=0;entryDy=0;endArrow=block;endFill=0;" parent="1" source="Yvhn0Xpq12AAz8X3d8LL-12" target="Yvhn0Xpq12AAz8X3d8LL-14" edge="1">
          <mxGeometry relative="1" as="geometry" />
        </mxCell>
        <mxCell id="Yvhn0Xpq12AAz8X3d8LL-12" value="Paint_Job" style="swimlane;" parent="1" vertex="1">
          <mxGeometry x="860" y="27.5" width="130" height="85" as="geometry" />
        </mxCell>
        <mxCell id="Yvhn0Xpq12AAz8X3d8LL-13" value="&lt;font style=&quot;font-size: 15px;&quot;&gt;color&lt;br&gt;volume&lt;br&gt;labour_time&lt;br&gt;&lt;/font&gt;" style="text;html=1;strokeColor=none;fillColor=none;align=left;verticalAlign=middle;whiteSpace=wrap;rounded=0;" parent="Yvhn0Xpq12AAz8X3d8LL-12" vertex="1">
          <mxGeometry x="5" y="18" width="125" height="62" as="geometry" />
        </mxCell>
        <mxCell id="Yvhn0Xpq12AAz8X3d8LL-122" style="edgeStyle=orthogonalEdgeStyle;rounded=0;orthogonalLoop=1;jettySize=auto;html=1;exitX=0.5;exitY=1;exitDx=0;exitDy=0;entryX=0.5;entryY=0;entryDx=0;entryDy=0;endArrow=none;endFill=0;" parent="1" source="Yvhn0Xpq12AAz8X3d8LL-16" edge="1">
          <mxGeometry relative="1" as="geometry">
            <mxPoint x="745" y="80" as="sourcePoint" />
            <mxPoint x="925.0000000000001" y="235.5" as="targetPoint" />
          </mxGeometry>
        </mxCell>
        <mxCell id="Yvhn0Xpq12AAz8X3d8LL-16" value="Fit_Job" style="swimlane;" parent="1" vertex="1">
          <mxGeometry x="680" y="27.5" width="130" height="65" as="geometry" />
        </mxCell>
        <mxCell id="Yvhn0Xpq12AAz8X3d8LL-17" value="&lt;font style=&quot;font-size: 19px;&quot;&gt;&lt;span style=&quot;font-size: 15px;&quot;&gt;labour_time&lt;/span&gt;&lt;br&gt;&lt;/font&gt;" style="text;html=1;strokeColor=none;fillColor=none;align=left;verticalAlign=middle;whiteSpace=wrap;rounded=0;" parent="Yvhn0Xpq12AAz8X3d8LL-16" vertex="1">
          <mxGeometry y="18" width="100" height="37" as="geometry" />
        </mxCell>
        <mxCell id="rlw6mKpt9DurWP3DimKn-39" value="Assembly_acc" style="swimlane;" parent="1" vertex="1">
          <mxGeometry x="1440" y="355" width="160" height="100" as="geometry" />
        </mxCell>
        <mxCell id="rlw6mKpt9DurWP3DimKn-40" value="&lt;font style=&quot;font-size: 15px;&quot;&gt;details-2&lt;br&gt;&lt;/font&gt;" style="text;html=1;strokeColor=none;fillColor=none;align=left;verticalAlign=middle;whiteSpace=wrap;rounded=0;" parent="rlw6mKpt9DurWP3DimKn-39" vertex="1">
          <mxGeometry x="5" y="18" width="155" height="72" as="geometry" />
        </mxCell>
        <mxCell id="Yvhn0Xpq12AAz8X3d8LL-63" style="edgeStyle=orthogonalEdgeStyle;rounded=0;orthogonalLoop=1;jettySize=auto;html=1;endArrow=classic;endFill=1;shape=link;entryX=0;entryY=0.5;entryDx=0;entryDy=0;" parent="1" source="Esn9ofpHZriy3nmGsQpr-4" target="WISRtMbhI-oxBsKCAMT3-8" edge="1">
          <mxGeometry relative="1" as="geometry">
            <mxPoint x="420" y="630" as="sourcePoint" />
            <mxPoint x="1400" y="630" as="targetPoint" />
          </mxGeometry>
        </mxCell>
        <mxCell id="Yvhn0Xpq12AAz8X3d8LL-113" style="edgeStyle=orthogonalEdgeStyle;rounded=0;orthogonalLoop=1;jettySize=auto;html=1;exitX=0;exitY=0.5;exitDx=0;exitDy=0;entryX=1.002;entryY=0.387;entryDx=0;entryDy=0;entryPerimeter=0;shape=link;" parent="1" source="Yvhn0Xpq12AAz8X3d8LL-76" target="Yvhn0Xpq12AAz8X3d8LL-53" edge="1">
          <mxGeometry relative="1" as="geometry">
            <mxPoint x="620" y="509.66666666666674" as="targetPoint" />
          </mxGeometry>
        </mxCell>
        <mxCell id="Yvhn0Xpq12AAz8X3d8LL-114" style="edgeStyle=orthogonalEdgeStyle;rounded=0;orthogonalLoop=1;jettySize=auto;html=1;exitX=1;exitY=0.5;exitDx=0;exitDy=0;entryX=0.5;entryY=1;entryDx=0;entryDy=0;" parent="1" source="Yvhn0Xpq12AAz8X3d8LL-76" target="Yvhn0Xpq12AAz8X3d8LL-14" edge="1">
          <mxGeometry relative="1" as="geometry" />
        </mxCell>
        <mxCell id="Yvhn0Xpq12AAz8X3d8LL-76" value="&lt;font style=&quot;font-size: 15px;&quot;&gt;assigned&lt;/font&gt;" style="rhombus;whiteSpace=wrap;html=1;" parent="1" vertex="1">
          <mxGeometry x="750" y="430" width="80" height="80" as="geometry" />
        </mxCell>
        <mxCell id="g80aGx1AffrBZxclH2tH-29" style="edgeStyle=orthogonalEdgeStyle;rounded=0;orthogonalLoop=1;jettySize=auto;html=1;exitX=0.5;exitY=0;exitDx=0;exitDy=0;entryX=0.5;entryY=1;entryDx=0;entryDy=0;endArrow=block;endFill=0;" parent="1" source="rlw6mKpt9DurWP3DimKn-19" target="lSQpZ-wXDewV6-AMejSS-20" edge="1">
          <mxGeometry relative="1" as="geometry">
            <mxPoint x="360" y="690" as="targetPoint" />
          </mxGeometry>
        </mxCell>
        <mxCell id="rlw6mKpt9DurWP3DimKn-19" value="Fit" style="swimlane;" parent="1" vertex="1">
          <mxGeometry x="150" y="810" width="120" height="70" as="geometry" />
        </mxCell>
        <mxCell id="rlw6mKpt9DurWP3DimKn-20" value="&lt;p&gt;&lt;font style=&quot;font-size: 14px;&quot;&gt;fit_type&lt;/font&gt;&lt;/p&gt;" style="text;html=1;strokeColor=none;fillColor=none;align=left;verticalAlign=middle;whiteSpace=wrap;rounded=0;" parent="rlw6mKpt9DurWP3DimKn-19" vertex="1">
          <mxGeometry y="20" width="70" height="40" as="geometry" />
        </mxCell>
        <mxCell id="Yvhn0Xpq12AAz8X3d8LL-88" style="edgeStyle=orthogonalEdgeStyle;rounded=0;orthogonalLoop=1;jettySize=auto;html=1;exitX=1;exitY=0.5;exitDx=0;exitDy=0;entryX=0.5;entryY=0;entryDx=0;entryDy=0;endArrow=none;endFill=0;" parent="1" source="Yvhn0Xpq12AAz8X3d8LL-89" target="44iWDTCKB7y5lLKzqdXo-19" edge="1">
          <mxGeometry relative="1" as="geometry" />
        </mxCell>
        <mxCell id="WISRtMbhI-oxBsKCAMT3-20" style="edgeStyle=orthogonalEdgeStyle;rounded=0;orthogonalLoop=1;jettySize=auto;html=1;exitX=0;exitY=0.5;exitDx=0;exitDy=0;entryX=1;entryY=0.5;entryDx=0;entryDy=0;" parent="1" source="Yvhn0Xpq12AAz8X3d8LL-89" target="Yvhn0Xpq12AAz8X3d8LL-14" edge="1">
          <mxGeometry relative="1" as="geometry" />
        </mxCell>
        <mxCell id="Yvhn0Xpq12AAz8X3d8LL-89" value="&lt;font style=&quot;font-size: 17px;&quot;&gt;Records&lt;/font&gt;" style="rhombus;whiteSpace=wrap;html=1;" parent="1" vertex="1">
          <mxGeometry x="1670" y="145" width="90" height="80" as="geometry" />
        </mxCell>
        <mxCell id="g80aGx1AffrBZxclH2tH-24" style="edgeStyle=orthogonalEdgeStyle;rounded=0;orthogonalLoop=1;jettySize=auto;html=1;exitX=0.5;exitY=1;exitDx=0;exitDy=0;entryX=1;entryY=0.75;entryDx=0;entryDy=0;" parent="1" source="Yvhn0Xpq12AAz8X3d8LL-91" target="rlw6mKpt9DurWP3DimKn-38" edge="1">
          <mxGeometry relative="1" as="geometry" />
        </mxCell>
        <mxCell id="g80aGx1AffrBZxclH2tH-25" style="edgeStyle=orthogonalEdgeStyle;rounded=0;orthogonalLoop=1;jettySize=auto;html=1;exitX=0.5;exitY=0;exitDx=0;exitDy=0;entryX=1;entryY=0.25;entryDx=0;entryDy=0;" parent="1" source="Yvhn0Xpq12AAz8X3d8LL-91" target="rlw6mKpt9DurWP3DimKn-40" edge="1">
          <mxGeometry relative="1" as="geometry" />
        </mxCell>
        <mxCell id="g80aGx1AffrBZxclH2tH-26" style="edgeStyle=orthogonalEdgeStyle;rounded=0;orthogonalLoop=1;jettySize=auto;html=1;exitX=0;exitY=0.5;exitDx=0;exitDy=0;" parent="1" source="Yvhn0Xpq12AAz8X3d8LL-91" edge="1">
          <mxGeometry relative="1" as="geometry">
            <Array as="points">
              <mxPoint x="2030" y="640" />
              <mxPoint x="2030" y="760" />
              <mxPoint x="1523" y="760" />
            </Array>
            <mxPoint x="1523" y="680" as="targetPoint" />
          </mxGeometry>
        </mxCell>
        <mxCell id="Yvhn0Xpq12AAz8X3d8LL-91" value="&lt;font style=&quot;font-size: 16px;&quot;&gt;Updates&lt;/font&gt;" style="rhombus;whiteSpace=wrap;html=1;" parent="1" vertex="1">
          <mxGeometry x="2080" y="600" width="80" height="80" as="geometry" />
        </mxCell>
        <mxCell id="g80aGx1AffrBZxclH2tH-28" style="edgeStyle=orthogonalEdgeStyle;rounded=0;orthogonalLoop=1;jettySize=auto;html=1;exitX=0.5;exitY=0;exitDx=0;exitDy=0;entryX=0.5;entryY=1;entryDx=0;entryDy=0;endArrow=block;endFill=0;" parent="1" source="rlw6mKpt9DurWP3DimKn-17" target="lSQpZ-wXDewV6-AMejSS-20" edge="1">
          <mxGeometry relative="1" as="geometry">
            <Array as="points">
              <mxPoint x="360" y="686" />
              <mxPoint x="360" y="686" />
            </Array>
          </mxGeometry>
        </mxCell>
        <mxCell id="rlw6mKpt9DurWP3DimKn-17" value="Paint" style="swimlane;startSize=23;" parent="1" vertex="1">
          <mxGeometry x="302.5" y="808.75" width="115" height="71.25" as="geometry" />
        </mxCell>
        <mxCell id="rlw6mKpt9DurWP3DimKn-18" value="&lt;font style=&quot;font-size: 14px;&quot;&gt;paint_type&lt;br&gt;painting_method&lt;br&gt;&lt;/font&gt;" style="text;html=1;strokeColor=none;fillColor=none;align=left;verticalAlign=middle;whiteSpace=wrap;rounded=0;" parent="rlw6mKpt9DurWP3DimKn-17" vertex="1">
          <mxGeometry y="20" width="110" height="50" as="geometry" />
        </mxCell>
        <mxCell id="g80aGx1AffrBZxclH2tH-30" style="edgeStyle=orthogonalEdgeStyle;rounded=0;orthogonalLoop=1;jettySize=auto;html=1;exitX=0.5;exitY=0;exitDx=0;exitDy=0;entryX=0.5;entryY=1;entryDx=0;entryDy=0;endArrow=block;endFill=0;" parent="1" source="rlw6mKpt9DurWP3DimKn-15" target="lSQpZ-wXDewV6-AMejSS-20" edge="1">
          <mxGeometry relative="1" as="geometry" />
        </mxCell>
        <mxCell id="rlw6mKpt9DurWP3DimKn-15" value="Cut" style="swimlane;" parent="1" vertex="1">
          <mxGeometry x="475" y="808.75" width="110" height="90" as="geometry" />
        </mxCell>
        <mxCell id="rlw6mKpt9DurWP3DimKn-16" value="&lt;font style=&quot;font-size: 14px;&quot;&gt;cutting_type&lt;br&gt;machine_type&lt;br&gt;&lt;/font&gt;" style="text;html=1;strokeColor=none;fillColor=none;align=left;verticalAlign=middle;whiteSpace=wrap;rounded=0;" parent="rlw6mKpt9DurWP3DimKn-15" vertex="1">
          <mxGeometry y="20" width="100" height="60" as="geometry" />
        </mxCell>
        <mxCell id="Yvhn0Xpq12AAz8X3d8LL-14" value="Job" style="swimlane;" parent="1" vertex="1">
          <mxGeometry x="860" y="248" width="130" height="100" as="geometry" />
        </mxCell>
        <mxCell id="Yvhn0Xpq12AAz8X3d8LL-15" value="&lt;font style=&quot;font-size: 14px;&quot;&gt;&lt;u&gt;job_no&lt;/u&gt;&lt;br&gt;date_started&lt;br&gt;date_completed&lt;br&gt;&lt;/font&gt;" style="text;html=1;strokeColor=none;fillColor=none;align=left;verticalAlign=middle;whiteSpace=wrap;rounded=0;" parent="Yvhn0Xpq12AAz8X3d8LL-14" vertex="1">
          <mxGeometry x="2.5" y="20" width="117.5" height="70" as="geometry" />
        </mxCell>
        <mxCell id="g80aGx1AffrBZxclH2tH-2" style="edgeStyle=orthogonalEdgeStyle;rounded=0;orthogonalLoop=1;jettySize=auto;html=1;exitX=0.5;exitY=1;exitDx=0;exitDy=0;entryX=0.479;entryY=0.005;entryDx=0;entryDy=0;entryPerimeter=0;endArrow=none;endFill=0;shape=link;" parent="1" source="rlw6mKpt9DurWP3DimKn-4" target="lSQpZ-wXDewV6-AMejSS-21" edge="1">
          <mxGeometry relative="1" as="geometry" />
        </mxCell>
        <mxCell id="g80aGx1AffrBZxclH2tH-18" style="edgeStyle=orthogonalEdgeStyle;rounded=0;orthogonalLoop=1;jettySize=auto;html=1;exitX=1;exitY=0.5;exitDx=0;exitDy=0;entryX=0;entryY=0.5;entryDx=0;entryDy=0;endArrow=block;endFill=0;" parent="1" source="rlw6mKpt9DurWP3DimKn-40" target="44iWDTCKB7y5lLKzqdXo-24" edge="1">
          <mxGeometry relative="1" as="geometry" />
        </mxCell>
        <mxCell id="g80aGx1AffrBZxclH2tH-19" style="edgeStyle=orthogonalEdgeStyle;rounded=0;orthogonalLoop=1;jettySize=auto;html=1;exitX=1;exitY=0.5;exitDx=0;exitDy=0;entryX=0;entryY=0.5;entryDx=0;entryDy=0;endArrow=block;endFill=0;" parent="1" source="rlw6mKpt9DurWP3DimKn-42" target="44iWDTCKB7y5lLKzqdXo-24" edge="1">
          <mxGeometry relative="1" as="geometry" />
        </mxCell>
        <mxCell id="g80aGx1AffrBZxclH2tH-20" style="edgeStyle=orthogonalEdgeStyle;rounded=0;orthogonalLoop=1;jettySize=auto;html=1;exitX=1;exitY=0.5;exitDx=0;exitDy=0;entryX=0;entryY=0.5;entryDx=0;entryDy=0;endArrow=block;endFill=0;" parent="1" source="rlw6mKpt9DurWP3DimKn-38" target="44iWDTCKB7y5lLKzqdXo-24" edge="1">
          <mxGeometry relative="1" as="geometry" />
        </mxCell>
        <mxCell id="g80aGx1AffrBZxclH2tH-21" value="&lt;font style=&quot;font-size: 16px;&quot;&gt;total&lt;/font&gt;" style="text;html=1;align=center;verticalAlign=middle;resizable=0;points=[];autosize=1;strokeColor=none;fillColor=none;" parent="1" vertex="1">
          <mxGeometry x="1720" y="655" width="50" height="30" as="geometry" />
        </mxCell>
        <mxCell id="g80aGx1AffrBZxclH2tH-22" style="edgeStyle=orthogonalEdgeStyle;rounded=0;orthogonalLoop=1;jettySize=auto;html=1;exitX=1;exitY=0.5;exitDx=0;exitDy=0;entryX=-0.039;entryY=0.317;entryDx=0;entryDy=0;entryPerimeter=0;endArrow=none;endFill=0;shape=link;" parent="1" source="Yvhn0Xpq12AAz8X3d8LL-91" target="44iWDTCKB7y5lLKzqdXo-20" edge="1">
          <mxGeometry relative="1" as="geometry" />
        </mxCell>
        <mxCell id="Esn9ofpHZriy3nmGsQpr-2" value="" style="edgeStyle=orthogonalEdgeStyle;rounded=0;orthogonalLoop=1;jettySize=auto;html=1;exitX=1;exitY=0.75;exitDx=0;exitDy=0;shape=link;entryX=0;entryY=0.5;entryDx=0;entryDy=0;" parent="1" target="Esn9ofpHZriy3nmGsQpr-1" edge="1">
          <mxGeometry relative="1" as="geometry">
            <mxPoint x="440" y="405" as="sourcePoint" />
            <mxPoint x="980" y="420" as="targetPoint" />
          </mxGeometry>
        </mxCell>
        <mxCell id="Esn9ofpHZriy3nmGsQpr-1" value="Rec_assem" style="rhombus;whiteSpace=wrap;html=1;" parent="1" vertex="1">
          <mxGeometry x="1020" y="365" width="80" height="80" as="geometry" />
        </mxCell>
        <mxCell id="Esn9ofpHZriy3nmGsQpr-3" value="" style="edgeStyle=orthogonalEdgeStyle;rounded=0;orthogonalLoop=1;jettySize=auto;html=1;entryX=0;entryY=0.5;entryDx=0;entryDy=0;endArrow=classic;endFill=1;shape=link;exitX=0;exitY=0.5;exitDx=0;exitDy=0;" parent="1" source="WISRtMbhI-oxBsKCAMT3-6" target="Esn9ofpHZriy3nmGsQpr-4" edge="1">
          <mxGeometry relative="1" as="geometry">
            <mxPoint x="470" y="631" as="sourcePoint" />
            <mxPoint x="1440" y="630" as="targetPoint" />
          </mxGeometry>
        </mxCell>
        <mxCell id="Esn9ofpHZriy3nmGsQpr-4" value="Rec_process" style="rhombus;whiteSpace=wrap;html=1;" parent="1" vertex="1">
          <mxGeometry x="980" y="590" width="80" height="80" as="geometry" />
        </mxCell>
        <mxCell id="WISRtMbhI-oxBsKCAMT3-14" style="edgeStyle=orthogonalEdgeStyle;rounded=0;orthogonalLoop=1;jettySize=auto;html=1;exitX=0;exitY=0.5;exitDx=0;exitDy=0;shape=link;entryX=0;entryY=0.5;entryDx=0;entryDy=0;" parent="1" source="Esn9ofpHZriy3nmGsQpr-6" target="WISRtMbhI-oxBsKCAMT3-13" edge="1">
          <mxGeometry relative="1" as="geometry">
            <mxPoint x="920" y="960" as="targetPoint" />
          </mxGeometry>
        </mxCell>
        <mxCell id="Esn9ofpHZriy3nmGsQpr-6" value="Rec_dept" style="rhombus;whiteSpace=wrap;html=1;" parent="1" vertex="1">
          <mxGeometry x="1130" y="916.5" width="80" height="80" as="geometry" />
        </mxCell>
        <mxCell id="WISRtMbhI-oxBsKCAMT3-3" value="" style="edgeStyle=orthogonalEdgeStyle;rounded=0;orthogonalLoop=1;jettySize=auto;html=1;exitX=1;exitY=0.5;exitDx=0;exitDy=0;endArrow=block;endFill=0;shape=link;entryX=0;entryY=0.5;entryDx=0;entryDy=0;" parent="1" source="Esn9ofpHZriy3nmGsQpr-1" target="WISRtMbhI-oxBsKCAMT3-2" edge="1">
          <mxGeometry relative="1" as="geometry">
            <mxPoint x="1090" y="410" as="sourcePoint" />
            <mxPoint x="1410" y="407" as="targetPoint" />
          </mxGeometry>
        </mxCell>
        <mxCell id="WISRtMbhI-oxBsKCAMT3-2" value="" style="triangle;whiteSpace=wrap;html=1;fillColor=#000000;" parent="1" vertex="1">
          <mxGeometry x="1430" y="400" width="10" height="10" as="geometry" />
        </mxCell>
        <mxCell id="WISRtMbhI-oxBsKCAMT3-5" value="" style="triangle;whiteSpace=wrap;html=1;fillColor=#000000;direction=west;" parent="1" vertex="1">
          <mxGeometry x="430" y="400" width="10" height="10" as="geometry" />
        </mxCell>
        <mxCell id="WISRtMbhI-oxBsKCAMT3-6" value="" style="triangle;whiteSpace=wrap;html=1;fillColor=#000000;direction=west;" parent="1" vertex="1">
          <mxGeometry x="415" y="625" width="10" height="10" as="geometry" />
        </mxCell>
        <mxCell id="WISRtMbhI-oxBsKCAMT3-7" value="" style="triangle;whiteSpace=wrap;html=1;fillColor=#000000;" parent="1" vertex="1">
          <mxGeometry x="1430" y="951.5" width="10" height="10" as="geometry" />
        </mxCell>
        <mxCell id="WISRtMbhI-oxBsKCAMT3-8" value="" style="triangle;whiteSpace=wrap;html=1;fillColor=#000000;" parent="1" vertex="1">
          <mxGeometry x="1430" y="625" width="10" height="10" as="geometry" />
        </mxCell>
        <mxCell id="WISRtMbhI-oxBsKCAMT3-13" value="" style="triangle;whiteSpace=wrap;html=1;direction=west;fillColor=#050505;" parent="1" vertex="1">
          <mxGeometry x="890" y="951.5" width="10" height="10" as="geometry" />
        </mxCell>
        <mxCell id="WISRtMbhI-oxBsKCAMT3-16" value="&lt;font style=&quot;font-size: 15px;&quot;&gt;total&lt;/font&gt;" style="text;html=1;align=center;verticalAlign=middle;resizable=0;points=[];autosize=1;strokeColor=none;fillColor=none;" parent="1" vertex="1">
          <mxGeometry x="402.5" y="710" width="50" height="30" as="geometry" />
        </mxCell>
        <mxCell id="WISRtMbhI-oxBsKCAMT3-17" value="total" style="text;html=1;align=center;verticalAlign=middle;resizable=0;points=[];autosize=1;strokeColor=none;fillColor=none;" parent="1" vertex="1">
          <mxGeometry x="960" y="195" width="50" height="30" as="geometry" />
        </mxCell>
        <mxCell id="WISRtMbhI-oxBsKCAMT3-22" value="" style="endArrow=none;dashed=1;html=1;rounded=0;entryX=0.15;entryY=0.667;entryDx=0;entryDy=0;entryPerimeter=0;" parent="1" target="WISRtMbhI-oxBsKCAMT3-16" edge="1">
          <mxGeometry width="50" height="50" relative="1" as="geometry">
            <mxPoint x="360" y="730" as="sourcePoint" />
            <mxPoint x="400" y="730.0030769230771" as="targetPoint" />
          </mxGeometry>
        </mxCell>
        <mxCell id="YlbahRkKiGkgZHYPFWBI-1" value="" style="endArrow=none;dashed=1;html=1;rounded=0;exitX=0.4;exitY=0.5;exitDx=0;exitDy=0;exitPerimeter=0;" parent="1" source="g80aGx1AffrBZxclH2tH-21" edge="1">
          <mxGeometry width="50" height="50" relative="1" as="geometry">
            <mxPoint x="1740" y="660" as="sourcePoint" />
            <mxPoint x="1740" y="640" as="targetPoint" />
          </mxGeometry>
        </mxCell>
        <mxCell id="YlbahRkKiGkgZHYPFWBI-2" value="" style="endArrow=none;dashed=1;html=1;rounded=0;entryX=0.2;entryY=0.5;entryDx=0;entryDy=0;entryPerimeter=0;" parent="1" target="WISRtMbhI-oxBsKCAMT3-17" edge="1">
          <mxGeometry width="50" height="50" relative="1" as="geometry">
            <mxPoint x="930" y="210" as="sourcePoint" />
            <mxPoint x="1010" y="160" as="targetPoint" />
          </mxGeometry>
        </mxCell>
      </root>
    </mxGraphModel>
  </diagram>
</mxfile>
